HIERARCHY
ROOT Hips
{
	OFFSET 0.000000 0.000000 0.000000
	CHANNELS 6 Xposition Yposition Zposition Xrotation Yrotation Zrotation
	JOINT LeftUpLeg_virtual
	{
		OFFSET 0.000000 0.000000 0.000000
		CHANNELS 3 Xrotation Yrotation Zrotation
		JOINT LeftUpLeg
		{
			OFFSET 15.427100 -6.655098 0.678600
			CHANNELS 3 Xrotation Yrotation Zrotation
			JOINT LeftLeg
			{
				OFFSET 4.081073 -39.591068 13.024000
				CHANNELS 3 Xrotation Yrotation Zrotation
				JOINT LeftFoot
				{
					OFFSET -4.081074 -37.707932 -15.979700
					CHANNELS 3 Xrotation Yrotation Zrotation
					JOINT LeftToeBase
					{
						OFFSET 5.346399 -15.068900 20.645000
						CHANNELS 3 Xrotation Yrotation Zrotation
						JOINT LeftToe_End
						{
							OFFSET 2.754700 0.931300 11.300900
							CHANNELS 3 Xrotation Yrotation Zrotation
							End Site
							{
								OFFSET 0 0 0
							}
						}
					}
				}
			}
		}
	}
	JOINT RightUpLeg_virtual
	{
		OFFSET 0.000000 0.000000 0.000000
		CHANNELS 3 Xrotation Yrotation Zrotation
		JOINT RightUpLeg
		{
			OFFSET -15.569500 -6.655098 0.678600
			CHANNELS 3 Xrotation Yrotation Zrotation
			JOINT RightLeg
			{
				OFFSET -4.081825 -39.591045 13.023800
				CHANNELS 3 Xrotation Yrotation Zrotation
				JOINT RightFoot
				{
					OFFSET 4.081824 -37.707954 -15.979600
					CHANNELS 3 Xrotation Yrotation Zrotation
					JOINT RightToeBase
					{
						OFFSET -5.346400 -15.068900 20.645000
						CHANNELS 3 Xrotation Yrotation Zrotation
						JOINT RightToe_End
						{
							OFFSET -2.754700 0.931300 11.300900
							CHANNELS 3 Xrotation Yrotation Zrotation
							End Site
							{
								OFFSET 0 0 0
							}
						}
					}
				}
			}
		}
	}
	JOINT Spine_virtual
	{
		OFFSET 0.000000 0.000000 0.000000
		CHANNELS 3 Xrotation Yrotation Zrotation
		JOINT Spine
		{
			OFFSET -0.279200 12.230698 -2.892100
			CHANNELS 3 Xrotation Yrotation Zrotation
			JOINT Spine1
			{
				OFFSET -0.232667 10.192268 -1.242267
				CHANNELS 3 Xrotation Yrotation Zrotation
				JOINT Spine1_split
				{
					OFFSET -0.232667 10.192268 -1.242267
					CHANNELS 3 Xrotation Yrotation Zrotation
					JOINT Spine2
					{
						OFFSET -0.232667 10.192268 -1.242267
						CHANNELS 3 Xrotation Yrotation Zrotation
						JOINT Neck_virtual
						{
							OFFSET 0.000000 0.000000 0.000000
							CHANNELS 3 Xrotation Yrotation Zrotation
							JOINT Neck
							{
								OFFSET -0.418800 17.814194 8.416900
								CHANNELS 3 Xrotation Yrotation Zrotation
								JOINT Head
								{
									OFFSET 0.000000 7.031097 3.806800
									CHANNELS 3 Xrotation Yrotation Zrotation
									JOINT HeadTop_End
									{
										OFFSET 0.000000 24.646606 12.978600
										CHANNELS 3 Xrotation Yrotation Zrotation
										End Site
										{
											OFFSET 0 0 0
										}
									}
								}
							}
						}
						JOINT LeftShoulder_virtual
						{
							OFFSET 0.000000 0.000000 0.000000
							CHANNELS 3 Xrotation Yrotation Zrotation
							JOINT LeftShoulder
							{
								OFFSET 8.476499 7.247704 -3.868750
								CHANNELS 3 Xrotation Yrotation Zrotation
								JOINT LeftShoulder_split
								{
									OFFSET 8.476499 7.247704 -3.868750
									CHANNELS 3 Xrotation Yrotation Zrotation
									JOINT LeftArm
									{
										OFFSET 9.308998 -2.777710 0.208600
										CHANNELS 3 Xrotation Yrotation Zrotation
										JOINT LeftForeArm
										{
											OFFSET 29.972298 0.000000 0.000000
											CHANNELS 3 Xrotation Yrotation Zrotation
											JOINT LeftHand
											{
												OFFSET 26.026505 0.000000 0.000000
												CHANNELS 3 Xrotation Yrotation Zrotation
												End Site
												{
													OFFSET 0 0 0
												}
											}
										}
									}
								}
							}
						}
						JOINT RightShoulder_virtual
						{
							OFFSET 0.000000 0.000000 0.000000
							CHANNELS 3 Xrotation Yrotation Zrotation
							JOINT RightShoulder
							{
								OFFSET -7.570500 7.247704 -3.868750
								CHANNELS 3 Xrotation Yrotation Zrotation
								JOINT RightShoulder_split
								{
									OFFSET -7.570500 7.247704 -3.868750
									CHANNELS 3 Xrotation Yrotation Zrotation
									JOINT RightArm
									{
										OFFSET -9.308998 -2.777710 0.208500
										CHANNELS 3 Xrotation Yrotation Zrotation
										JOINT RightForeArm
										{
											OFFSET -29.972300 0.000000 0.000000
											CHANNELS 3 Xrotation Yrotation Zrotation
											JOINT RightHand
											{
												OFFSET -26.026505 0.000000 0.000000
												CHANNELS 3 Xrotation Yrotation Zrotation
												End Site
												{
													OFFSET 0 0 0
												}
											}
										}
									}
								}
							}
						}
					}
				}
			}
		}
	}
}
MOTION
Frames: 11
Frame Time: 0.03333333
1.090973 93.910248 -2.170498 0.000000 0.000000 0.000000 -3.420203 3.938697 -5.494873 -24.961119 -10.780695 0.835081 48.301523 0.414930 0.355438 17.594607 2.118104 10.734572 -28.609852 0.488521 -7.662415 0.000000 0.000000 0.000000 -3.420203 3.938697 -5.494873 -12.269466 -11.282026 10.696670 32.473305 0.765751 -0.383667 7.237897 -1.477334 -7.636055 -26.816810 1.229525 -0.013313 0.000000 0.000000 0.000000 -3.420203 3.938697 -5.494873 7.493062 -0.121124 1.508941 -2.114713 -0.634067 1.955412 0.000000 0.000000 0.000000 0.000000 0.000000 0.000000 -2.107417 -0.526125 1.991271 -6.842736 -2.682116 0.508892 2.526783 0.702883 0.466853 0.000000 0.000000 0.000000 -2.107417 -0.526125 1.991271 1.091370 1.577359 -3.543032 0.000000 0.000000 0.000000 -1.207960 1.492937 -78.012761 20.698678 -13.799225 -0.079241 0.000000 0.000000 0.000000 -2.107417 -0.526125 1.991271 0.487466 5.285028 4.298001 0.000000 0.000000 0.000000 -7.282517 4.832120 74.584819 13.988541 13.383147 -4.466956 0.000000 0.000000 0.000000 
1.199518 95.384644 0.916830 0.000000 0.000000 0.000000 -2.710361 2.820091 -4.282581 -27.323525 -8.048846 -0.158640 40.829238 0.376886 0.298046 18.174922 1.905394 9.664897 -26.321242 0.075603 -2.675950 0.000000 0.000000 0.000000 -2.710361 2.820091 -4.282581 -9.167669 -12.087466 9.225414 29.751276 3.392530 -0.186366 6.275493 -1.677171 -8.144177 -27.700522 1.173364 0.505493 0.000000 0.000000 0.000000 -2.710361 2.820091 -4.282581 6.862836 0.226110 0.937367 -2.080432 -0.313499 1.675652 0.000000 0.000000 0.000000 0.000000 0.000000 0.000000 -2.058832 -0.215385 1.707925 -6.824234 -1.991732 0.148009 2.570388 1.192968 0.558138 0.000000 0.000000 0.000000 -2.058832 -0.215385 1.707925 1.161758 2.620607 -4.138580 0.000000 0.000000 0.000000 -0.675547 1.681684 -77.753999 23.741085 -14.201291 0.898229 0.000000 0.000000 0.000000 -2.058832 -0.215385 1.707925 0.521029 5.806646 4.065539 0.000000 0.000000 0.000000 -8.045855 5.987355 74.740356 12.972002 13.640117 -3.836559 0.000000 0.000000 0.000000 
1.346606 96.538612 3.882051 0.000000 0.000000 0.000000 -2.040958 1.805428 -3.526828 -29.122830 -4.217654 -0.979535 32.188158 -1.382110 0.236317 21.944325 2.923558 9.369778 -24.998844 0.025073 0.048793 0.000000 0.000000 0.000000 -2.040958 1.805428 -3.526828 -6.255259 -14.484895 8.360659 27.102360 7.130132 0.034100 5.803451 -1.488669 -9.593999 -27.826802 1.119458 1.113437 0.000000 0.000000 0.000000 -2.040958 1.805428 -3.526828 6.496087 0.552713 1.114635 -2.164171 -0.087648 1.327396 0.000000 0.000000 0.000000 0.000000 0.000000 0.000000 -2.103373 -0.002019 1.355804 -6.706182 -1.103626 -0.543467 2.558714 1.719133 0.758874 0.000000 0.000000 0.000000 -2.103373 -0.002019 1.355804 1.326057 3.845516 -5.238572 0.000000 0.000000 0.000000 -0.005116 2.080357 -77.146481 25.494451 -14.592177 1.554048 0.000000 0.000000 0.000000 -2.103373 -0.002019 1.355804 0.568234 6.440959 3.658638 0.000000 0.000000 0.000000 -8.430287 8.119883 74.878278 10.227153 15.268108 -3.522336 0.000000 0.000000 0.000000 
1.670641 97.106644 6.661568 0.000000 0.000000 0.000000 -1.058349 0.429836 -2.748159 -31.577839 0.675036 -0.738232 25.141354 -1.142039 0.314356 24.276763 1.145097 4.871398 -25.008219 0.035682 0.070646 0.000000 0.000000 0.000000 -1.058349 0.429836 -2.748159 -4.633379 -17.058645 7.216272 25.766578 10.494739 0.095058 4.998249 -0.899295 -10.529923 -28.127149 1.064181 1.118049 0.000000 0.000000 0.000000 -1.058349 0.429836 -2.748159 6.124510 0.980678 1.546385 -2.415186 0.285826 0.861850 0.000000 0.000000 0.000000 0.000000 0.000000 0.000000 -2.279707 0.356748 0.875466 -6.516889 -0.113615 -1.146702 2.435895 2.406443 0.840325 0.000000 0.000000 0.000000 -2.279707 0.356748 0.875466 1.561004 4.901430 -6.501987 0.000000 0.000000 0.000000 0.928783 2.852960 -76.443703 25.950568 -15.000403 2.001426 0.000000 0.000000 0.000000 -2.279707 0.356748 0.875466 0.610001 6.612301 3.312220 0.000000 0.000000 0.000000 -8.250057 11.492345 74.614776 8.393940 17.168703 -3.295296 0.000000 0.000000 0.000000 
1.899355 97.559784 9.314814 0.000000 0.000000 0.000000 -0.586724 -0.577930 -2.522150 -32.889017 4.315335 0.604455 18.484140 1.894999 0.485200 26.278806 -1.818909 -1.486260 -25.054759 0.039514 0.078552 0.000000 0.000000 0.000000 -0.586724 -0.577930 -2.522150 -2.097525 -19.990147 6.866344 24.083223 13.613987 0.243729 4.166247 -0.321827 -11.925284 -28.667690 1.001314 1.596422 0.000000 0.000000 0.000000 -0.586724 -0.577930 -2.522150 6.233427 1.353114 1.233238 -2.713911 0.301719 1.515031 0.000000 0.000000 0.000000 0.000000 0.000000 0.000000 -2.581277 0.432835 1.513154 -6.177116 1.402243 -2.943447 2.310209 3.063961 1.261982 0.000000 0.000000 0.000000 -2.581277 0.432835 1.513154 2.076389 6.498103 -8.978070 0.000000 0.000000 0.000000 2.173338 3.162902 -75.453578 25.663941 -15.542393 2.187251 0.000000 0.000000 0.000000 -2.581277 0.432835 1.513154 0.968729 7.637010 0.422387 0.000000 0.000000 0.000000 -8.482534 11.768441 76.022860 9.287158 19.290437 -3.919865 0.000000 0.000000 0.000000 
2.107463 97.651375 11.833851 0.000000 0.000000 0.000000 -0.389589 -0.849787 -2.607201 -33.599169 3.420737 0.854574 12.117166 3.793074 0.292412 29.505003 -2.707094 -4.489009 -25.202141 0.030344 0.059722 0.000000 0.000000 0.000000 -0.389589 -0.849787 -2.607201 0.733885 -21.769018 7.160754 22.929763 14.479371 0.294361 2.131089 -0.026834 -13.811287 -29.100588 0.941627 3.240816 0.000000 0.000000 0.000000 -0.389589 -0.849787 -2.607201 6.723748 1.497576 0.057778 -3.208120 -0.247009 3.170755 0.000000 0.000000 0.000000 0.000000 0.000000 0.000000 -3.188771 0.045642 3.159575 -5.411293 3.255761 -5.241168 2.023084 3.946271 1.433077 0.000000 0.000000 0.000000 -3.188771 0.045642 3.159575 2.835393 8.745194 -12.139153 0.000000 0.000000 0.000000 3.471258 3.542351 -74.801001 26.017442 -15.657995 2.050273 0.000000 0.000000 0.000000 -3.188771 0.045642 3.159575 1.385070 9.746099 -3.580971 0.000000 0.000000 0.000000 -8.462177 9.876568 78.056426 10.268710 20.394682 -4.235267 0.000000 0.000000 0.000000 
2.332668 97.097382 14.807189 0.000000 0.000000 0.000000 -0.230398 -0.458313 -3.171564 -34.578598 5.681812 0.355999 8.672287 0.518621 0.232084 35.986938 -3.668758 -3.687855 -25.417518 0.001774 0.000572 0.000000 0.000000 0.000000 -0.230398 -0.458313 -3.171564 4.098868 -21.338204 8.205512 22.305591 12.470253 0.241075 -1.754097 -0.115128 -15.552599 -29.545189 0.864389 3.878184 0.000000 0.000000 0.000000 -0.230398 -0.458313 -3.171564 8.379021 1.236045 1.019358 -4.428564 -0.841838 2.670545 0.000000 0.000000 0.000000 0.000000 0.000000 0.000000 -4.391909 -0.486678 2.610560 -6.338899 3.493517 -2.006120 3.383295 5.855997 -1.061604 0.000000 0.000000 0.000000 -4.391909 -0.486678 2.610560 2.354688 13.088310 -9.808244 0.000000 0.000000 0.000000 5.125868 2.817131 -77.012295 26.986812 -15.727936 1.865737 0.000000 0.000000 0.000000 -4.391909 -0.486678 2.610560 1.570655 10.149906 -3.118638 0.000000 0.000000 0.000000 -8.103329 11.000791 78.111512 7.715932 21.566035 -3.226935 0.000000 0.000000 0.000000 
2.530353 95.796371 18.399647 0.000000 0.000000 0.000000 -0.061008 0.092032 -3.322796 -35.338012 8.863714 -0.623335 9.194860 -3.496961 -0.878808 42.330050 -4.465801 -0.145879 -25.438124 -0.092824 -0.195559 0.000000 0.000000 0.000000 -0.061008 0.092032 -3.322796 7.357505 -20.257037 8.653080 22.656383 10.967908 0.203556 -6.331199 -0.282064 -16.468414 -29.504474 0.826623 3.552722 0.000000 0.000000 0.000000 -0.061008 0.092032 -3.322796 7.433147 1.253002 0.455298 -4.027823 -1.000626 3.050760 0.000000 0.000000 0.000000 0.000000 0.000000 0.000000 -4.043319 -0.619600 3.030188 -7.198925 3.658304 -1.499532 3.713548 6.223300 -1.370683 0.000000 0.000000 0.000000 -4.043319 -0.619600 3.030188 2.295810 12.822121 -9.630620 0.000000 0.000000 0.000000 5.305740 4.107308 -77.522811 26.651343 -15.181639 1.988447 0.000000 0.000000 0.000000 -4.043319 -0.619600 3.030188 1.557805 9.742742 -3.276321 0.000000 0.000000 0.000000 -7.876888 11.200360 78.394664 6.955487 21.553733 -2.946486 0.000000 0.000000 0.000000 
2.812455 94.955116 22.179668 0.000000 0.000000 0.000000 -0.319912 0.481872 -2.774767 -34.361114 9.766001 -1.969411 11.634858 -4.466898 -2.982189 40.906037 -4.108816 8.884392 -25.196301 -0.122113 -0.254441 0.000000 0.000000 0.000000 -0.319912 0.481872 -2.774767 10.612964 -20.110585 7.807984 22.218044 11.487026 0.340551 -8.972016 -0.538580 -16.249353 -29.262979 0.800526 2.869182 0.000000 0.000000 0.000000 -0.319912 0.481872 -2.774767 6.066420 1.238597 -0.293659 -3.304955 -0.825250 2.956956 0.000000 0.000000 0.000000 0.000000 0.000000 0.000000 -3.343146 -0.489881 2.978654 -7.669660 3.464296 -1.002385 3.894179 6.214332 -1.376463 0.000000 0.000000 0.000000 -3.343146 -0.489881 2.978654 2.183677 11.804455 -9.243079 0.000000 0.000000 0.000000 4.942631 4.913840 -77.674018 26.682680 -13.783510 1.543243 0.000000 0.000000 0.000000 -3.343146 -0.489881 2.978654 1.399748 8.691798 -2.714116 0.000000 0.000000 0.000000 -7.303344 12.078211 78.638263 10.044959 20.259077 -4.130494 0.000000 0.000000 0.000000 
3.262389 94.429420 26.411341 0.000000 0.000000 0.000000 0.129893 0.542361 -1.676618 -33.878742 13.736308 -3.453390 15.167369 -7.350183 -3.872345 38.594616 -4.285618 14.605188 -24.936580 0.046215 0.092504 0.000000 0.000000 0.000000 0.129893 0.542361 -1.676618 12.766043 -20.047466 5.857920 21.642715 12.175169 0.636190 -9.600651 -1.270695 -14.396370 -28.997387 0.777082 2.164490 0.000000 0.000000 0.000000 0.129893 0.542361 -1.676618 3.344303 1.122138 -0.780385 -2.664007 -0.493148 2.338127 0.000000 0.000000 0.000000 0.000000 0.000000 0.000000 -2.698872 -0.203345 2.432336 -7.393347 3.124962 -0.249205 4.284322 6.159627 -1.226532 0.000000 0.000000 0.000000 -2.698872 -0.203345 2.432336 1.866220 10.725614 -8.019004 0.000000 0.000000 0.000000 5.387967 6.298380 -78.291166 28.718579 -12.787136 2.191690 0.000000 0.000000 0.000000 -2.698872 -0.203345 2.432336 1.133353 7.232521 -1.299496 0.000000 0.000000 0.000000 -5.565586 12.917369 78.434573 11.166378 19.091412 -4.485717 0.000000 0.000000 0.000000 
3.666559 93.793617 30.718153 0.000000 0.000000 0.000000 0.247429 1.234908 -0.892804 -33.577586 26.438955 -5.599408 21.800352 -13.510449 0.139848 36.112518 -8.003507 20.029656 -26.401763 -0.011914 4.145045 0.000000 0.000000 0.000000 0.247429 1.234908 -0.892804 13.907901 -15.995618 4.228019 22.658678 9.652236 0.603548 -7.833859 -3.346463 -10.059081 -28.982292 0.739003 1.956425 0.000000 0.000000 0.000000 0.247429 1.234908 -0.892804 0.587109 0.797771 -3.084894 -1.846135 -0.260082 3.057484 0.000000 0.000000 0.000000 0.000000 0.000000 0.000000 -1.988286 0.036433 3.237695 -7.035047 3.044906 -0.509750 4.060600 5.968434 -1.065585 0.000000 0.000000 0.000000 -1.988286 0.036433 3.237695 1.746642 8.303810 -7.518227 0.000000 0.000000 0.000000 5.828046 9.440730 -80.505575 28.984731 -12.160120 3.468830 0.000000 0.000000 0.000000 -1.988286 0.036433 3.237695 1.092860 6.340856 -1.487464 0.000000 0.000000 0.000000 -3.952714 11.059459 79.350119 12.740580 17.606701 -4.821885 0.000000 0.000000 0.000000 
